<svg width="45" height="45" viewBox="0 0 45 45" fill="none" xmlns="http://www.w3.org/2000/svg">
<path fill-rule="evenodd" clip-rule="evenodd" d="M37.6022 19.3232C39.5596 20.9915 42.1974 21.6217 44.6976 21.0186C44.737 21.5532 44.7568 22.1 44.7568 22.6589C44.7568 23.2178 44.7365 23.773 44.696 24.3243C44.0453 33.0328 38.3799 40.5637 30.193 43.6029C22.0062 46.642 12.799 44.632 6.62352 38.4576C0.750092 32.5832 -1.3792 23.9351 1.0954 16.0053C3.57001 8.07542 10.2399 2.17324 18.4119 0.68189C19.4918 0.48761 20.5844 0.372439 21.6811 0.337296C21.66 0.574052 21.6487 0.810809 21.6487 1.05405C21.6493 3.72188 22.9745 6.2153 25.1854 7.70838L26.1195 8.34081L25.8519 9.43703C25.1623 12.2536 26.0444 15.2231 28.1598 17.2064C30.2752 19.1898 33.2953 19.8789 36.0616 19.0095L36.9187 18.7395L37.6022 19.3232ZM17.3734 41.3189C24.0328 43.0697 31.1191 41.0993 35.9189 36.1622C39.0842 33.015 41.0368 28.8514 41.4324 24.4054C39.5366 24.1702 37.7315 23.4574 36.1865 22.3338C35.3542 22.5255 34.5028 22.6221 33.6487 22.6216C27.4338 22.6216 22.3784 17.5662 22.3784 11.3513C22.3786 10.8123 22.417 10.2739 22.4935 9.74027C20.6738 8.23591 19.3728 6.19774 18.7743 3.91378C18.976 3.8754 19.1776 3.84 19.3792 3.80757C19.177 3.84 18.9754 3.8754 18.7743 3.91378C18.6889 3.58946 18.6181 3.26081 18.5619 2.92784C18.616 3.26027 18.6868 3.58892 18.7743 3.91378C15.0368 4.63418 11.6027 6.46298 8.91893 9.16216C3.98175 13.9619 2.01135 21.0483 3.76221 27.7077C5.51308 34.3671 10.714 39.568 17.3734 41.3189Z" fill="#D9BF65"/>
<circle cx="9.81081" cy="21.5676" r="2.67568" fill="#D9BF65"/>
<circle cx="20.027" cy="24.5676" r="2.83784" fill="#D9BF65"/>
<circle cx="31.0541" cy="28.6216" r="3.72973" fill="#D9BF65"/>
<circle cx="17.9189" cy="34.5405" r="1.62162" fill="#D9BF65"/>
<circle cx="16.2973" cy="12.6487" r="1.45946" fill="#D9BF65"/>
<circle cx="35.1081" cy="11.4324" r="2.18919" fill="#D9BF65"/>
<circle cx="33.3243" cy="2.83784" r="2.83784" fill="#D9BF65"/>
<circle cx="43.0541" cy="15.0811" r="1.2973" fill="#D9BF65"/>
</svg>
