<svg width="46" height="46" viewBox="0 0 46 46" fill="none" xmlns="http://www.w3.org/2000/svg">
<path fill-rule="evenodd" clip-rule="evenodd" d="M33.845 23.4576C33.489 25.1181 32.7124 26.7215 31.4911 28.0709C27.7871 32.1637 21.4586 32.4786 17.3649 28.7738C13.2713 25.069 12.955 18.7406 16.659 14.6478C17.8802 13.2983 19.3985 12.3661 21.0152 11.8466C20.2919 15.2246 21.3311 18.8761 24.0751 21.3594C26.819 23.8426 30.5557 24.5135 33.845 23.4576ZM18.707 27.2909C21.9775 30.2507 27.0488 29.9984 30.0079 26.7286C30.2361 26.4765 30.4494 26.211 30.6337 25.9328C27.7502 25.8992 24.9208 24.8222 22.733 22.8423C20.5453 20.8623 19.1921 18.1541 18.8718 15.2882C18.6133 15.4993 18.3704 15.738 18.1422 15.9901C15.183 19.2599 15.4365 24.3311 18.707 27.2909Z" fill="#09192B"/>
<circle cx="23" cy="23" r="22.5" stroke="#09192B" stroke-opacity="0.6"/>
</svg>
