<svg width="216" height="51" viewBox="0 0 216 51" fill="none" xmlns="http://www.w3.org/2000/svg">
<path d="M13.112 7.856C14.344 7.856 15.4733 7.988 16.5 8.252C17.5267 8.48666 18.3187 8.72133 18.876 8.956L17.6 14.192C17.0133 13.928 16.368 13.7373 15.664 13.62C14.9893 13.4733 14.3587 13.4 13.772 13.4C12.98 13.4 12.3053 13.5173 11.748 13.752C11.22 13.9573 10.7947 14.2507 10.472 14.632C10.1787 15.0133 9.95867 15.468 9.812 15.996C9.69467 16.524 9.636 17.096 9.636 17.712V18.856H17.732V24.312H9.636V42H3.08V17.624C3.08 14.632 3.916 12.256 5.588 10.496C7.28933 8.736 9.79733 7.856 13.112 7.856ZM31.1905 24.664C30.6038 24.5173 29.9145 24.3707 29.1225 24.224C28.3305 24.048 27.4798 23.96 26.5705 23.96C26.1598 23.96 25.6612 24.004 25.0745 24.092C24.5172 24.1507 24.0918 24.224 23.7985 24.312V42H17.2425V20.088C18.4158 19.6773 19.7945 19.296 21.3785 18.944C22.9918 18.5627 24.7812 18.372 26.7465 18.372C27.0985 18.372 27.5238 18.4013 28.0225 18.46C28.5212 18.4893 29.0198 18.548 29.5185 18.636C30.0172 18.6947 30.5158 18.7827 31.0145 18.9C31.5132 18.988 31.9385 19.1053 32.2905 19.252L31.1905 24.664ZM39.8193 37.424C40.4646 37.424 41.0806 37.4093 41.6673 37.38C42.254 37.3507 42.7233 37.3067 43.0753 37.248V32.276C42.8113 32.2173 42.4153 32.1587 41.8873 32.1C41.3593 32.0413 40.8753 32.012 40.4353 32.012C39.8193 32.012 39.2326 32.056 38.6753 32.144C38.1473 32.2027 37.678 32.3347 37.2673 32.54C36.8566 32.7453 36.534 33.024 36.2993 33.376C36.0646 33.728 35.9473 34.168 35.9473 34.696C35.9473 35.7227 36.2846 36.4413 36.9593 36.852C37.6633 37.2333 38.6166 37.424 39.8193 37.424ZM39.2913 18.24C41.2273 18.24 42.8406 18.46 44.1313 18.9C45.422 19.34 46.4486 19.9707 47.2113 20.792C48.0033 21.6133 48.5606 22.6107 48.8833 23.784C49.206 24.9573 49.3673 26.2627 49.3673 27.7V41.34C48.4286 41.5453 47.1233 41.78 45.4513 42.044C43.7793 42.3373 41.7553 42.484 39.3793 42.484C37.8833 42.484 36.5193 42.352 35.2873 42.088C34.0846 41.824 33.0433 41.3987 32.1633 40.812C31.2833 40.196 30.6086 39.404 30.1393 38.436C29.67 37.468 29.4353 36.28 29.4353 34.872C29.4353 33.5227 29.6993 32.3787 30.2273 31.44C30.7846 30.5013 31.518 29.7533 32.4273 29.196C33.3366 28.6387 34.378 28.2427 35.5513 28.008C36.7246 27.744 37.942 27.612 39.2033 27.612C40.054 27.612 40.802 27.656 41.4473 27.744C42.122 27.8027 42.6646 27.8907 43.0753 28.008V27.392C43.0753 26.2773 42.738 25.3827 42.0633 24.708C41.3886 24.0333 40.2153 23.696 38.5433 23.696C37.4286 23.696 36.3286 23.784 35.2433 23.96C34.158 24.1067 33.2193 24.3267 32.4273 24.62L31.5913 19.34C31.9726 19.2227 32.442 19.1053 32.9993 18.988C33.586 18.8413 34.2166 18.724 34.8913 18.636C35.566 18.5187 36.27 18.4307 37.0033 18.372C37.766 18.284 38.5286 18.24 39.2913 18.24ZM50.8956 19.648C52.0103 19.3253 53.4476 19.032 55.2076 18.768C56.9676 18.4747 58.8156 18.328 60.7516 18.328C62.717 18.328 64.345 18.592 65.6356 19.12C66.9556 19.6187 67.997 20.3373 68.7596 21.276C69.5223 22.2147 70.065 23.3293 70.3876 24.62C70.7103 25.9107 70.8716 27.348 70.8716 28.932V42H64.3156V29.724C64.3156 27.612 64.037 26.116 63.4796 25.236C62.9223 24.356 61.881 23.916 60.3556 23.916C59.8863 23.916 59.3876 23.9453 58.8596 24.004C58.3316 24.0333 57.8623 24.0773 57.4516 24.136V42H50.8956V19.648ZM78.9618 27.216C79.6071 26.512 80.2671 25.7787 80.9418 25.016C81.6458 24.2533 82.3204 23.5053 82.9658 22.772C83.6111 22.0093 84.2125 21.2907 84.7698 20.616C85.3565 19.9413 85.8551 19.3547 86.2658 18.856H94.0538C92.4991 20.6453 90.9738 22.3613 89.4778 24.004C88.0111 25.6173 86.3978 27.2893 84.6378 29.02C85.5178 29.812 86.4271 30.7653 87.3658 31.88C88.3045 32.9653 89.2138 34.0947 90.0938 35.268C90.9738 36.4413 91.7805 37.6147 92.5138 38.788C93.2471 39.9613 93.8631 41.032 94.3618 42H86.8378C86.3685 41.2373 85.8258 40.4013 85.2098 39.492C84.6231 38.5533 83.9925 37.6293 83.3178 36.72C82.6431 35.7813 81.9245 34.8867 81.1618 34.036C80.4285 33.1853 79.6951 32.4667 78.9618 31.88V42H72.4058V8.912L78.9618 7.856V27.216Z" fill="#09192B"/>
<path d="M108.71 23.96C108.212 23.5493 107.493 23.1533 106.554 22.772C105.616 22.3907 104.589 22.2 103.474 22.2C102.301 22.2 101.289 22.42 100.438 22.86C99.6169 23.2707 98.9423 23.8573 98.4143 24.62C97.8863 25.3533 97.5049 26.2333 97.2703 27.26C97.0356 28.2867 96.9183 29.3867 96.9183 30.56C96.9183 33.2293 97.5783 35.2973 98.8983 36.764C100.218 38.2013 101.978 38.92 104.178 38.92C105.293 38.92 106.217 38.876 106.95 38.788C107.713 38.6707 108.3 38.5533 108.71 38.436V23.96ZM108.71 8.56L112.802 7.856V41.34C111.864 41.604 110.661 41.868 109.194 42.132C107.728 42.396 106.041 42.528 104.134 42.528C102.374 42.528 100.79 42.2493 99.3823 41.692C97.9743 41.1347 96.7716 40.3427 95.7743 39.316C94.7769 38.2893 93.9996 37.0427 93.4423 35.576C92.9143 34.08 92.6503 32.408 92.6503 30.56C92.6503 28.8 92.8703 27.1867 93.3102 25.72C93.7796 24.2533 94.4543 22.992 95.3343 21.936C96.2143 20.88 97.2849 20.0587 98.5463 19.472C99.8369 18.8853 101.304 18.592 102.946 18.592C104.266 18.592 105.425 18.768 106.422 19.12C107.449 19.472 108.212 19.8093 108.71 20.132V8.56ZM114.16 30.604C114.16 28.58 114.454 26.82 115.04 25.324C115.627 23.7987 116.404 22.5373 117.372 21.54C118.34 20.5427 119.455 19.7947 120.716 19.296C121.978 18.7973 123.268 18.548 124.588 18.548C127.668 18.548 130.03 19.516 131.672 21.452C133.315 23.3587 134.136 26.2773 134.136 30.208C134.136 30.384 134.136 30.6187 134.136 30.912C134.136 31.176 134.122 31.4253 134.092 31.66H118.428C118.604 34.036 119.294 35.84 120.496 37.072C121.699 38.304 123.576 38.92 126.128 38.92C127.566 38.92 128.768 38.8027 129.736 38.568C130.734 38.304 131.482 38.0547 131.98 37.82L132.552 41.252C132.054 41.516 131.174 41.7947 129.912 42.088C128.68 42.3813 127.272 42.528 125.688 42.528C123.694 42.528 121.963 42.2347 120.496 41.648C119.059 41.032 117.871 40.196 116.932 39.14C115.994 38.084 115.29 36.8373 114.82 35.4C114.38 33.9333 114.16 32.3347 114.16 30.604ZM129.868 28.36C129.898 26.512 129.428 25.0013 128.46 23.828C127.522 22.6253 126.216 22.024 124.544 22.024C123.606 22.024 122.77 22.2147 122.036 22.596C121.332 22.948 120.731 23.4173 120.232 24.004C119.734 24.5907 119.338 25.2653 119.044 26.028C118.78 26.7907 118.604 27.568 118.516 28.36H129.868ZM153.479 19.12C152.335 23.4027 150.985 27.5093 149.431 31.44C147.905 35.3707 146.424 38.8907 144.987 42H141.291C139.853 38.8907 138.357 35.3707 136.803 31.44C135.277 27.5093 133.943 23.4027 132.799 19.12H137.199C137.551 20.5573 137.961 22.0973 138.431 23.74C138.929 25.3533 139.443 26.9667 139.971 28.58C140.528 30.164 141.085 31.704 141.643 33.2C142.2 34.696 142.728 36.0307 143.227 37.204C143.725 36.0307 144.253 34.696 144.811 33.2C145.368 31.704 145.911 30.164 146.439 28.58C146.996 26.9667 147.509 25.3533 147.979 23.74C148.477 22.0973 148.903 20.5573 149.255 19.12H153.479ZM161.748 18.636C162.1 18.636 162.496 18.6653 162.936 18.724C163.406 18.7533 163.86 18.812 164.3 18.9C164.74 18.9587 165.136 19.032 165.488 19.12C165.87 19.1787 166.148 19.2373 166.324 19.296L165.62 22.86C165.298 22.7427 164.755 22.6107 163.992 22.464C163.259 22.288 162.306 22.2 161.132 22.2C160.37 22.2 159.607 22.288 158.844 22.464C158.111 22.6107 157.627 22.7133 157.392 22.772V42H153.3V20.088C154.268 19.736 155.471 19.4133 156.908 19.12C158.346 18.7973 159.959 18.636 161.748 18.636ZM169.965 42H165.873V19.12H169.965V42ZM167.897 14.984C167.164 14.984 166.533 14.7493 166.005 14.28C165.506 13.7813 165.257 13.1213 165.257 12.3C165.257 11.4787 165.506 10.8333 166.005 10.364C166.533 9.86533 167.164 9.616 167.897 9.616C168.63 9.616 169.246 9.86533 169.745 10.364C170.273 10.8333 170.537 11.4787 170.537 12.3C170.537 13.1213 170.273 13.7813 169.745 14.28C169.246 14.7493 168.63 14.984 167.897 14.984ZM171.326 30.604C171.326 28.58 171.619 26.82 172.206 25.324C172.793 23.7987 173.57 22.5373 174.538 21.54C175.506 20.5427 176.621 19.7947 177.882 19.296C179.143 18.7973 180.434 18.548 181.754 18.548C184.834 18.548 187.195 19.516 188.838 21.452C190.481 23.3587 191.302 26.2773 191.302 30.208C191.302 30.384 191.302 30.6187 191.302 30.912C191.302 31.176 191.287 31.4253 191.258 31.66H175.594C175.77 34.036 176.459 35.84 177.662 37.072C178.865 38.304 180.742 38.92 183.294 38.92C184.731 38.92 185.934 38.8027 186.902 38.568C187.899 38.304 188.647 38.0547 189.146 37.82L189.718 41.252C189.219 41.516 188.339 41.7947 187.078 42.088C185.846 42.3813 184.438 42.528 182.854 42.528C180.859 42.528 179.129 42.2347 177.662 41.648C176.225 41.032 175.037 40.196 174.098 39.14C173.159 38.084 172.455 36.8373 171.986 35.4C171.546 33.9333 171.326 32.3347 171.326 30.604ZM187.034 28.36C187.063 26.512 186.594 25.0013 185.626 23.828C184.687 22.6253 183.382 22.024 181.71 22.024C180.771 22.024 179.935 22.2147 179.202 22.596C178.498 22.948 177.897 23.4173 177.398 24.004C176.899 24.5907 176.503 25.2653 176.21 26.028C175.946 26.7907 175.77 27.568 175.682 28.36H187.034ZM198.104 39.052C199.776 39.052 201.008 38.832 201.8 38.392C202.621 37.952 203.032 37.248 203.032 36.28C203.032 35.2827 202.636 34.4907 201.844 33.904C201.052 33.3173 199.747 32.6573 197.928 31.924C197.048 31.572 196.197 31.22 195.376 30.868C194.584 30.4867 193.895 30.0467 193.308 29.548C192.721 29.0493 192.252 28.448 191.9 27.744C191.548 27.04 191.372 26.1747 191.372 25.148C191.372 23.124 192.12 21.5253 193.616 20.352C195.112 19.1493 197.151 18.548 199.732 18.548C200.377 18.548 201.023 18.592 201.668 18.68C202.313 18.7387 202.915 18.8267 203.472 18.944C204.029 19.032 204.513 19.1347 204.924 19.252C205.364 19.3693 205.701 19.472 205.936 19.56L205.188 23.08C204.748 22.8453 204.059 22.6107 203.12 22.376C202.181 22.112 201.052 21.98 199.732 21.98C198.588 21.98 197.591 22.2147 196.74 22.684C195.889 23.124 195.464 23.828 195.464 24.796C195.464 25.2947 195.552 25.7347 195.728 26.116C195.933 26.4973 196.227 26.8493 196.608 27.172C197.019 27.4653 197.517 27.744 198.104 28.008C198.691 28.272 199.395 28.5507 200.216 28.844C201.301 29.2547 202.269 29.6653 203.12 30.076C203.971 30.4573 204.689 30.912 205.276 31.44C205.892 31.968 206.361 32.6133 206.684 33.376C207.007 34.1093 207.168 35.0187 207.168 36.104C207.168 38.216 206.376 39.8147 204.792 40.9C203.237 41.9853 201.008 42.528 198.104 42.528C196.08 42.528 194.496 42.352 193.352 42C192.208 41.6773 191.431 41.428 191.02 41.252L191.768 37.732C192.237 37.908 192.985 38.172 194.012 38.524C195.039 38.876 196.403 39.052 198.104 39.052Z" fill="#D9BF65"/>
<circle r="3.5" transform="matrix(1 0 0 -1 212.5 38.5)" fill="#09192B"/>
</svg>
