<svg width="512" height="512" viewBox="0 0 512 512" fill="none" xmlns="http://www.w3.org/2000/svg">
<rect width="512" height="512" fill="#FEFBF4"/>
<path d="M34.04 341V141.416H167.672V179.144H78.968V220.904H157.88V258.632H78.968V341H34.04Z" fill="#09192B"/>
<path d="M204.311 264.104C204.311 277.352 207.287 288.008 213.239 296.072C219.191 304.136 228.023 308.168 239.735 308.168C243.575 308.168 247.127 308.072 250.391 307.88C253.655 307.496 256.343 307.112 258.455 306.728V228.68C255.767 226.952 252.215 225.512 247.799 224.36C243.575 223.208 239.255 222.632 234.839 222.632C214.487 222.632 204.311 236.456 204.311 264.104ZM301.367 336.104C297.527 337.256 293.111 338.408 288.119 339.56C283.127 340.52 277.847 341.384 272.279 342.152C266.903 342.92 261.335 343.496 255.575 343.88C250.007 344.456 244.631 344.744 239.447 344.744C226.967 344.744 215.831 342.92 206.039 339.272C196.247 335.624 187.991 330.44 181.271 323.72C174.551 316.808 169.367 308.552 165.719 298.952C162.263 289.16 160.535 278.216 160.535 266.12C160.535 253.832 162.071 242.792 165.143 233C168.215 223.016 172.631 214.568 178.391 207.656C184.151 200.744 191.159 195.464 199.415 191.816C207.863 188.168 217.463 186.344 228.215 186.344C234.167 186.344 239.447 186.92 244.055 188.072C248.855 189.224 253.655 190.856 258.455 192.968V124.424L301.367 117.512V336.104ZM374.955 341C367.083 324.296 359.307 306.92 351.627 288.872C343.947 270.824 336.651 252.968 329.739 235.304C322.827 217.64 316.395 200.744 310.443 184.616C304.683 168.488 299.691 154.088 295.467 141.416H345.003C348.843 152.936 352.971 165.416 357.387 178.856C361.995 192.104 366.603 205.352 371.211 218.6C376.011 231.848 380.619 244.52 385.035 256.616C389.451 268.712 393.579 279.176 397.42 288.008C401.067 279.176 405.099 268.712 409.515 256.616C414.123 244.52 418.731 231.848 423.34 218.6C428.14 205.352 432.748 192.104 437.164 178.856C441.772 165.416 445.995 152.936 449.835 141.416H497.643C493.227 154.088 488.139 168.488 482.38 184.616C476.619 200.744 470.284 217.64 463.372 235.304C456.46 252.968 449.164 270.824 441.483 288.872C433.804 306.92 426.028 324.296 418.155 341H374.955Z" fill="#D9BF65"/>
<ellipse rx="3.45139" ry="3.29412" transform="matrix(1 0 0 -1 382.549 259.235)" fill="#09192B"/>
</svg>
